<?xml version="1.0" encoding="UTF-8"?>
<!DOCTYPE svg PUBLIC "-//W3C//DTD SVG 1.1//EN" "http://www.w3.org/Graphics/SVG/1.1/DTD/svg11.dtd">
<svg xmlns="http://www.w3.org/2000/svg" version="1.1" width="597px" height="699px" style="shape-rendering:geometricPrecision; text-rendering:geometricPrecision; image-rendering:optimizeQuality; fill-rule:evenodd; clip-rule:evenodd" xmlns:xlink="http://www.w3.org/1999/xlink">
<g><path style="opacity:0.98" fill="#0000" d="M 132.5,20.5 C 132.5,20.8333 132.5,21.1667 132.5,21.5C 94.1667,21.5 55.8333,21.5 17.5,21.5C 17.5,29.1667 17.5,36.8333 17.5,44.5C 16.5076,36.6841 16.1743,28.6841 16.5,20.5C 55.1667,20.5 93.8333,20.5 132.5,20.5 Z"/></g>
<g><path style="opacity:0.98" fill="#e4e3e2" d="M 581.5,21.5 C 543.167,21.5 504.833,21.5 466.5,21.5C 466.817,25.7016 466.483,29.7016 465.5,33.5C 465.5,33.1667 465.5,32.8333 465.5,32.5C 465.5,28.5 465.5,24.5 465.5,20.5C 504.337,20.1681 543.004,20.5015 581.5,21.5 Z"/></g>
<g><path style="opacity:1" fill="#fefefe" d="M 132.5,21.5 C 132.518,29.0372 133.185,36.3705 134.5,43.5C 134.5,44.1667 134.5,44.8333 134.5,45.5C 134.704,51.8659 136.037,57.8659 138.5,63.5C 154.298,115.452 186.965,152.452 236.5,174.5C 237.78,175.931 239.447,176.598 241.5,176.5C 241.5,124.833 241.5,73.1667 241.5,21.5C 280.239,21.1731 318.906,21.5064 357.5,22.5C 357.82,73.863 357.487,125.196 356.5,176.5C 357.791,176.737 358.791,176.404 359.5,175.5C 361.89,173.98 364.557,172.98 367.5,172.5C 369.967,172.245 371.967,171.245 373.5,169.5C 382.105,164.86 390.438,159.693 398.5,154C 406.198,147.159 413.865,140.326 421.5,133.5C 423.587,132.415 424.92,130.749 425.5,128.5C 435.579,116.688 443.913,103.688 450.5,89.5C 452.539,88.089 453.539,86.089 453.5,83.5C 454.799,78.5956 456.466,73.9289 458.5,69.5C 459.924,67.4855 460.59,65.1522 460.5,62.5C 460.366,60.7085 460.699,59.0418 461.5,57.5C 464.111,49.8372 465.444,41.8372 465.5,33.5C 466.483,29.7016 466.817,25.7016 466.5,21.5C 504.833,21.5 543.167,21.5 581.5,21.5C 581.5,25.8333 581.5,30.1667 581.5,34.5C 580.586,44.3636 579.586,54.3636 578.5,64.5C 578.5,65.1667 578.5,65.8333 578.5,66.5C 576.933,72.663 575.599,78.9964 574.5,85.5C 574.5,86.1667 574.5,86.8333 574.5,87.5C 572.592,91.9029 571.259,96.5695 570.5,101.5C 569.076,103.515 568.41,105.848 568.5,108.5C 565.708,119.896 561.375,130.562 555.5,140.5C 553.992,142.181 552.992,144.181 552.5,146.5C 535.542,180.697 512.542,210.364 483.5,235.5C 481.973,235.427 480.973,236.094 480.5,237.5C 462.557,254.085 442.224,267.085 419.5,276.5C 417.181,276.992 415.181,277.992 413.5,279.5C 403.072,284.872 392.072,288.872 380.5,291.5C 378.139,291.674 375.806,292.007 373.5,292.5C 373.5,293.5 373.5,294.5 373.5,295.5C 442.833,295.5 512.167,295.5 581.5,295.5C 581.5,333.833 581.5,372.167 581.5,410.5C 511.164,410.167 440.83,410.5 370.5,411.5C 370.624,412.107 370.957,412.44 371.5,412.5C 373.099,412.232 374.432,412.566 375.5,413.5C 377.599,414.612 379.933,415.279 382.5,415.5C 418.053,425.775 450.053,442.608 478.5,466C 515.857,497.361 544.024,535.528 563,580.5C 566.122,588.327 568.622,596.327 570.5,604.5C 571.387,609.722 572.721,614.722 574.5,619.5C 574.5,619.833 574.5,620.167 574.5,620.5C 575.392,627.049 576.725,633.382 578.5,639.5C 578.5,640.167 578.5,640.833 578.5,641.5C 579.586,651.636 580.586,661.636 581.5,671.5C 581.5,676.5 581.5,681.5 581.5,686.5C 542.486,687.161 503.819,686.494 465.5,684.5C 465.831,672.509 464.498,660.842 461.5,649.5C 461.416,645.163 460.416,641.163 458.5,637.5C 456.235,633.146 454.569,628.479 453.5,623.5C 453.293,620.759 452.293,618.426 450.5,616.5C 443.265,601.704 434.265,588.038 423.5,575.5C 422.581,572.911 420.914,570.911 418.5,569.5C 416.833,568.5 415.5,567.167 414.5,565.5C 412.431,562.427 409.764,560.094 406.5,558.5C 391.692,546.505 375.359,537.339 357.5,531C 358.832,582.598 358.832,634.098 357.5,685.5C 318.833,685.5 280.167,685.5 241.5,685.5C 241.833,633.496 241.5,581.496 240.5,529.5C 239.893,529.624 239.56,529.957 239.5,530.5C 216.264,539.944 195.931,553.611 178.5,571.5C 177.094,571.973 176.427,572.973 176.5,574.5C 163.688,588.762 153.355,604.762 145.5,622.5C 143.707,624.426 142.707,626.759 142.5,629.5C 142.5,630.167 142.5,630.833 142.5,631.5C 140.215,634.335 138.882,637.668 138.5,641.5C 138.5,641.833 138.5,642.167 138.5,642.5C 136.627,646.515 135.627,650.849 135.5,655.5C 135.167,658.833 134.833,662.167 134.5,665.5C 132.961,671.937 132.294,678.604 132.5,685.5C 93.8333,685.5 55.1667,685.5 16.5,685.5C 16.2792,676.134 16.6126,666.801 17.5,657.5C 19.7541,642.885 22.4208,628.218 25.5,613.5C 25.5,613.167 25.5,612.833 25.5,612.5C 27.2576,609.146 28.2576,605.479 28.5,601.5C 30.3756,593.539 33.0423,585.872 36.5,578.5C 38.2451,576.967 39.2451,574.967 39.5,572.5C 51.6841,542.998 69.0175,516.998 91.5,494.5C 97.8333,488.833 103.833,482.833 109.5,476.5C 136.405,450.373 167.738,431.373 203.5,419.5C 206.785,419.072 209.785,418.072 212.5,416.5C 216.805,414.254 221.471,412.92 226.5,412.5C 227.043,412.44 227.376,412.107 227.5,411.5C 157.503,410.5 87.5032,410.167 17.5,410.5C 17.5,372.167 17.5,333.833 17.5,295.5C 85.8333,295.5 154.167,295.5 222.5,295.5C 229.167,295.167 229.167,294.833 222.5,294.5C 141.283,268.931 81.6166,218.264 43.5,142.5C 43.539,139.911 42.539,137.911 40.5,136.5C 38.6092,133.386 37.2759,130.052 36.5,126.5C 36.0198,123.557 35.0198,120.89 33.5,118.5C 31.1939,114.915 29.8606,110.915 29.5,106.5C 28.5368,101.951 27.2035,97.6175 25.5,93.5C 25.5682,89.4296 24.5682,85.763 22.5,82.5C 21.5318,80.3926 21.1984,78.0593 21.5,75.5C 20.8572,68.9794 19.8572,62.6461 18.5,56.5C 17.5166,52.7016 17.1832,48.7016 17.5,44.5C 17.5,36.8333 17.5,29.1667 17.5,21.5C 55.8333,21.5 94.1667,21.5 132.5,21.5 Z"/></g>
<g><path style="opacity:0.51" fill="#a59f9f" d="M 357.5,20.5 C 357.5,21.1667 357.5,21.8333 357.5,22.5C 318.906,21.5064 280.239,21.1731 241.5,21.5C 241.5,73.1667 241.5,124.833 241.5,176.5C 239.447,176.598 237.78,175.931 236.5,174.5C 237.822,174.33 238.989,174.663 240,175.5C 240.5,123.834 240.667,72.1677 240.5,20.5C 279.5,20.5 318.5,20.5 357.5,20.5 Z"/></g>
<g><path style="opacity:0.031" fill="#9e7f7f" d="M 357.5,20.5 C 358.832,71.9024 358.832,123.402 357.5,175C 358.094,175.464 358.761,175.631 359.5,175.5C 358.791,176.404 357.791,176.737 356.5,176.5C 357.487,125.196 357.82,73.863 357.5,22.5C 357.5,21.8333 357.5,21.1667 357.5,20.5 Z"/></g>
<g><path style="opacity:0.247" fill="#a19d9b" d="M 132.5,20.5 C 133.872,27.9597 134.539,35.6264 134.5,43.5C 133.185,36.3705 132.518,29.0372 132.5,21.5C 132.5,21.1667 132.5,20.8333 132.5,20.5 Z"/></g>
<g><path style="opacity:0.451" fill="#ada9a7" d="M 465.5,32.5 C 465.5,32.8333 465.5,33.1667 465.5,33.5C 465.444,41.8372 464.111,49.8372 461.5,57.5C 462.748,49.0198 464.081,40.6865 465.5,32.5 Z"/></g>
<g><path style="opacity:0.673" fill="#ada9a7" d="M 581.5,34.5 C 581.979,44.7904 580.979,54.7904 578.5,64.5C 579.586,54.3636 580.586,44.3636 581.5,34.5 Z"/></g>
<g><path style="opacity:0.463" fill="#a09c99" d="M 134.5,45.5 C 136.435,51.2525 137.769,57.2525 138.5,63.5C 136.037,57.8659 134.704,51.8659 134.5,45.5 Z"/></g>
<g><path style="opacity:0.361" fill="#a7a3a1" d="M 18.5,56.5 C 19.8572,62.6461 20.8572,68.9794 21.5,75.5C 19.3659,69.4714 18.3659,63.138 18.5,56.5 Z"/></g>
<g><path style="opacity:0.125" fill="#9f9b98" d="M 460.5,62.5 C 460.59,65.1522 459.924,67.4855 458.5,69.5C 458.41,66.8478 459.076,64.5145 460.5,62.5 Z"/></g>
<g><path style="opacity:0.247" fill="#9d9795" d="M 578.5,66.5 C 578.562,73.2377 577.228,79.571 574.5,85.5C 575.599,78.9964 576.933,72.663 578.5,66.5 Z"/></g>
<g><path style="opacity:0.365" fill="#979493" d="M 453.5,83.5 C 453.539,86.089 452.539,88.089 450.5,89.5C 450.992,87.1815 451.992,85.1815 453.5,83.5 Z"/></g>
<g><path style="opacity:0.427" fill="#a29f9c" d="M 22.5,82.5 C 24.5682,85.763 25.5682,89.4296 25.5,93.5C 23.9257,90.0935 22.9257,86.4268 22.5,82.5 Z"/></g>
<g><path style="opacity:0.047" fill="#a39f9d" d="M 574.5,87.5 C 574.15,92.5395 572.816,97.2062 570.5,101.5C 571.259,96.5695 572.592,91.9029 574.5,87.5 Z"/></g>
<g><path style="opacity:0.478" fill="#93908f" d="M 25.5,93.5 C 27.2035,97.6175 28.5368,101.951 29.5,106.5C 26.9871,102.622 25.6538,98.2888 25.5,93.5 Z"/></g>
<g><path style="opacity:0.063" fill="#a4a1a1" d="M 570.5,101.5 C 570.59,104.152 569.924,106.485 568.5,108.5C 568.41,105.848 569.076,103.515 570.5,101.5 Z"/></g>
<g><path style="opacity:0.722" fill="#a29e9b" d="M 33.5,118.5 C 35.0198,120.89 36.0198,123.557 36.5,126.5C 34.4152,124.316 33.4152,121.649 33.5,118.5 Z"/></g>
<g><path style="opacity:0.851" fill="#a6a4a3" d="M 425.5,128.5 C 424.92,130.749 423.587,132.415 421.5,133.5C 422.08,131.251 423.413,129.585 425.5,128.5 Z"/></g>
<g><path style="opacity:0.427" fill="#9f9b9a" d="M 40.5,136.5 C 42.539,137.911 43.539,139.911 43.5,142.5C 41.9925,140.819 40.9925,138.819 40.5,136.5 Z"/></g>
<g><path style="opacity:0.404" fill="#a29e9d" d="M 555.5,140.5 C 555.539,143.089 554.539,145.089 552.5,146.5C 552.992,144.181 553.992,142.181 555.5,140.5 Z"/></g>
<g><path style="opacity:0.839" fill="#a8a4a3" d="M 373.5,169.5 C 371.967,171.245 369.967,172.245 367.5,172.5C 369.033,170.755 371.033,169.755 373.5,169.5 Z"/></g>
<g><path style="opacity:0.016" fill="#787676" d="M 483.5,235.5 C 483.027,236.906 482.027,237.573 480.5,237.5C 480.973,236.094 481.973,235.427 483.5,235.5 Z"/></g>
<g><path style="opacity:0.553" fill="#a9a49e" d="M 419.5,276.5 C 418.089,278.539 416.089,279.539 413.5,279.5C 415.181,277.992 417.181,276.992 419.5,276.5 Z"/></g>
<g><path style="opacity:0.125" fill="#8f8f87" d="M 380.5,291.5 C 378.723,292.6 376.723,293.434 374.5,294C 443.668,294.167 512.668,294.667 581.5,295.5C 512.167,295.5 442.833,295.5 373.5,295.5C 373.5,294.5 373.5,293.5 373.5,292.5C 375.806,292.007 378.139,291.674 380.5,291.5 Z"/></g>
<g><path style="opacity:0.91" fill="#bfbebb" d="M 222.5,294.5 C 222.5,294.833 222.5,295.167 222.5,295.5C 154.167,295.5 85.8333,295.5 17.5,295.5C 17.5,333.833 17.5,372.167 17.5,410.5C 87.5032,410.167 157.503,410.5 227.5,411.5C 227.376,412.107 227.043,412.44 226.5,412.5C 156.669,411.501 86.6687,411.167 16.5,411.5C 16.5,372.5 16.5,333.5 16.5,294.5C 85.1667,294.5 153.833,294.5 222.5,294.5 Z"/></g>
<g><path style="opacity:0.91" fill="#cdcccb" d="M 581.5,410.5 C 511.5,411.167 441.5,411.833 371.5,412.5C 370.957,412.44 370.624,412.107 370.5,411.5C 440.83,410.5 511.164,410.167 581.5,410.5 Z"/></g>
<g><path style="opacity:0.153" fill="#a5a1a0" d="M 375.5,413.5 C 378.228,413.171 380.562,413.837 382.5,415.5C 379.933,415.279 377.599,414.612 375.5,413.5 Z"/></g>
<g><path style="opacity:0.875" fill="#9d9999" d="M 212.5,416.5 C 209.785,418.072 206.785,419.072 203.5,419.5C 206.084,417.528 209.084,416.528 212.5,416.5 Z"/></g>
<g><path style="opacity:0.953" fill="#bfbbba" d="M 109.5,476.5 C 103.833,482.833 97.8333,488.833 91.5,494.5C 96.5,487.5 102.5,481.5 109.5,476.5 Z"/></g>
<g><path style="opacity:0.51" fill="#a59f9e" d="M 239.5,530.5 C 239.56,529.957 239.893,529.624 240.5,529.5C 241.5,581.496 241.833,633.496 241.5,685.5C 280.167,685.5 318.833,685.5 357.5,685.5C 318.67,686.499 279.67,686.832 240.5,686.5C 240.832,634.331 240.499,582.331 239.5,530.5 Z"/></g>
<g><path style="opacity:0.863" fill="#b0aea9" d="M 406.5,558.5 C 409.764,560.094 412.431,562.427 414.5,565.5C 411.236,563.906 408.569,561.573 406.5,558.5 Z"/></g>
<g><path style="opacity:0.035" fill="#a8a29c" d="M 418.5,569.5 C 420.914,570.911 422.581,572.911 423.5,575.5C 421.086,574.089 419.419,572.089 418.5,569.5 Z"/></g>
<g><path style="opacity:0.067" fill="#7a7978" d="M 178.5,571.5 C 178.573,573.027 177.906,574.027 176.5,574.5C 176.427,572.973 177.094,571.973 178.5,571.5 Z"/></g>
<g><path style="opacity:0.192" fill="#96918c" d="M 39.5,572.5 C 39.2451,574.967 38.2451,576.967 36.5,578.5C 36.7549,576.033 37.7549,574.033 39.5,572.5 Z"/></g>
<g><path style="opacity:0.353" fill="#a8a3a3" d="M 28.5,601.5 C 28.2576,605.479 27.2576,609.146 25.5,612.5C 25.7424,608.521 26.7424,604.854 28.5,601.5 Z"/></g>
<g><path style="opacity:0.835" fill="#aca9a8" d="M 570.5,604.5 C 572.905,609.112 574.238,614.112 574.5,619.5C 572.721,614.722 571.387,609.722 570.5,604.5 Z"/></g>
<g><path style="opacity:0.761" fill="#a9a5a4" d="M 25.5,613.5 C 22.4208,628.218 19.7541,642.885 17.5,657.5C 18.265,642.353 20.9317,627.686 25.5,613.5 Z"/></g>
<g><path style="opacity:0.38" fill="#a29f9d" d="M 450.5,616.5 C 452.293,618.426 453.293,620.759 453.5,623.5C 451.707,621.574 450.707,619.241 450.5,616.5 Z"/></g>
<g><path style="opacity:0.62" fill="#aba5a3" d="M 574.5,620.5 C 576.91,626.492 578.244,632.825 578.5,639.5C 576.725,633.382 575.392,627.049 574.5,620.5 Z"/></g>
<g><path style="opacity:0.267" fill="#a09896" d="M 145.5,622.5 C 145.293,625.241 144.293,627.574 142.5,629.5C 142.707,626.759 143.707,624.426 145.5,622.5 Z"/></g>
<g><path style="opacity:0.522" fill="#8e8b86" d="M 142.5,631.5 C 141.733,635.149 140.4,638.482 138.5,641.5C 138.882,637.668 140.215,634.335 142.5,631.5 Z"/></g>
<g><path style="opacity:0.11" fill="#a9a3a2" d="M 458.5,637.5 C 460.416,641.163 461.416,645.163 461.5,649.5C 459.898,645.761 458.898,641.761 458.5,637.5 Z"/></g>
<g><path style="opacity:0.416" fill="#9c9997" d="M 138.5,642.5 C 138.26,647.12 137.26,651.453 135.5,655.5C 135.627,650.849 136.627,646.515 138.5,642.5 Z"/></g>
<g><path style="opacity:0.369" fill="#a7a3a1" d="M 578.5,641.5 C 580.979,651.21 581.979,661.21 581.5,671.5C 580.586,661.636 579.586,651.636 578.5,641.5 Z"/></g>
<g><path style="opacity:0.574" fill="#aaa7a5" d="M 461.5,649.5 C 464.498,660.842 465.831,672.509 465.5,684.5C 464.378,672.952 463.045,661.286 461.5,649.5 Z"/></g>
<g><path style="opacity:0.753" fill="#b4b0af" d="M 134.5,665.5 C 134.106,672.496 133.773,679.496 133.5,686.5C 94.3298,686.832 55.3298,686.499 16.5,685.5C 55.1667,685.5 93.8333,685.5 132.5,685.5C 132.294,678.604 132.961,671.937 134.5,665.5 Z"/></g>
</svg>
